<?xml version="1.0" encoding="utf-8"?>
<svg xmlns="http://www.w3.org/2000/svg"
     width="512px"
     height="512px"
     viewBox="0 0 512 512">
  <path d="M 60.0 380.0 C 60.0 320.0 55.0 205.0 60.0 140.0 C 65.0 75.0 -13.0 125.0 80.0 120.0 C 173.0 115.0 339.0 115.0 432.0 120.0 C 525.0 125.0 447.0 75.0 452.0 140.0 C 457.0 205.0 457.0 315.0 452.0 380.0 C 447.0 445.0 525.0 395.0 432.0 400.0 C 339.0 405.0 173.0 405.0 80.0 400.0 C -13.0 395.0 56.2 395.0 60.0 380.0 C 63.8 365.0 86.2 345.0 95.0 340.0 C 103.8 335.0 95.0 365.0 95.0 360.0 C 95.0 355.0 95.0 355.0 95.0 320.0 C 95.0 285.0 97.2 247.5 95.0 220.0 C 92.8 192.5 88.2 225.0 86.0 210.0 C 83.8 195.0 85.5 161.2 86.0 160.0 C 86.5 158.8 86.5 205.0 88.0 205.0 C 89.5 205.0 90.5 160.0 92.0 160.0 C 93.5 160.0 92.5 205.0 94.0 205.0 C 95.5 205.0 96.5 160.0 98.0 160.0 C 99.5 160.0 98.5 205.0 100.0 205.0 C 101.5 205.0 103.0 158.8 104.0 160.0 C 105.0 161.2 106.2 195.0 104.0 210.0 C 101.8 225.0 92.2 203.5 95.0 220.0 C 97.8 236.5 107.2 262.0 115.0 276.0 C 122.8 290.0 123.2 276.0 126.0 276.0 C 128.8 276.0 125.0 282.3 126.0 276.0 C 127.0 269.7 127.2 263.2 130.1 251.0 C 133.0 238.7 133.1 238.7 137.6 227.0 C 142.1 215.2 141.9 215.0 148.2 204.0 C 154.6 193.0 154.5 192.5 163.1 183.1 C 171.7 173.6 172.0 173.2 182.7 166.3 C 193.4 159.3 193.9 159.4 206.0 155.2 C 218.0 151.0 218.3 151.4 230.9 149.6 C 243.4 147.8 243.4 148.0 256.0 148.0 C 268.6 148.0 268.6 147.8 281.1 149.6 C 293.7 151.4 294.0 151.0 306.0 155.2 C 318.1 159.4 318.6 159.3 329.3 166.3 C 340.0 173.2 340.3 173.6 348.9 183.1 C 357.5 192.5 357.4 193.0 363.8 204.0 C 370.1 215.0 369.9 215.2 374.4 227.0 C 378.9 238.7 379.0 238.7 381.9 251.0 C 384.8 263.2 385.2 263.3 386.0 276.0 C 386.8 288.7 387.2 289.1 385.1 301.7 C 383.1 314.3 383.0 314.8 377.8 326.5 C 372.6 338.1 372.1 338.3 364.4 348.4 C 356.7 358.6 356.2 358.4 346.9 366.9 C 337.6 375.4 337.5 375.3 327.1 382.5 C 316.8 389.6 316.8 389.9 305.5 395.4 C 294.1 400.9 293.9 401.4 281.6 404.6 C 269.2 407.7 268.8 408.0 256.0 408.0 C 243.2 408.0 242.8 407.7 230.4 404.6 C 218.1 401.4 217.9 400.9 206.5 395.4 C 195.2 389.9 195.2 389.6 184.9 382.5 C 174.5 375.3 174.4 375.4 165.1 366.9 C 155.8 358.4 155.3 358.6 147.6 348.4 C 139.9 338.3 139.4 338.1 134.2 326.5 C 129.0 314.8 128.9 314.3 126.9 301.7 C 124.8 289.1 126.2 282.4 126.0 276.0 C 125.8 269.6 124.8 280.2 126.0 276.0 C 127.2 271.8 127.8 267.2 130.7 259.0 C 133.6 250.9 133.7 250.8 137.6 243.3 C 141.5 235.8 141.5 235.8 146.3 229.1 C 151.1 222.5 151.2 222.4 156.7 216.7 C 162.2 210.9 162.2 210.9 168.3 206.1 C 174.4 201.3 174.5 201.3 181.0 197.5 C 187.5 193.8 190.8 192.5 194.3 191.1 C 197.7 189.6 189.6 195.0 194.8 191.8 C 200.0 188.6 204.1 183.3 215.0 178.2 C 225.9 173.1 226.5 172.8 238.5 171.2 C 250.5 169.6 250.9 170.4 262.9 171.8 C 274.9 173.3 274.8 173.6 286.4 177.0 C 297.9 180.4 298.3 179.9 309.0 185.3 C 319.8 190.8 320.6 190.6 329.4 198.9 C 338.2 207.1 338.3 207.8 344.3 218.3 C 350.3 228.8 349.7 229.3 353.5 240.7 C 357.3 252.1 357.4 252.1 359.3 264.0 C 361.3 275.9 362.1 276.2 361.3 288.2 C 360.4 300.3 360.4 300.9 356.0 312.2 C 351.5 323.4 350.6 323.5 343.5 333.2 C 336.3 342.9 336.0 342.6 327.4 351.0 C 318.7 359.3 319.0 359.9 309.0 366.6 C 298.9 373.3 298.7 374.1 287.2 377.8 C 275.7 381.5 275.1 381.2 263.0 381.3 C 250.9 381.5 250.7 380.7 238.9 378.3 C 227.1 376.0 227.1 376.1 215.8 371.9 C 204.5 367.7 174.8 398.1 193.8 361.7 C 212.7 325.2 267.1 258.7 291.6 226.0 C 316.1 193.3 297.3 225.5 291.6 231.0 C 285.9 236.5 280.2 243.7 268.8 247.9 C 257.4 252.1 257.4 247.9 246.0 247.9 C 234.6 247.9 234.6 252.1 223.2 247.9 C 211.8 243.7 202.7 239.0 200.4 231.0 C 198.1 223.0 212.9 225.4 214.1 216.0 C 215.2 206.6 202.7 201.2 205.0 193.2 C 207.2 185.2 216.4 181.8 223.2 184.1 C 230.0 186.4 226.6 196.6 232.3 202.3 C 238.0 208.0 242.6 213.7 246.0 206.9 C 249.4 200.0 243.7 177.2 246.0 175.0 C 248.3 172.7 250.6 190.9 255.1 197.8 C 259.7 204.6 257.4 204.6 264.2 202.3 C 271.1 200.0 280.2 185.2 282.5 188.6 C 284.8 192.1 279.1 213.3 273.4 216.0 C 267.7 218.7 261.0 202.7 259.7 199.4 C 258.4 196.2 265.2 200.0 268.2 203.0 C 271.2 206.0 271.7 207.2 271.7 211.4 C 271.7 215.7 271.2 216.9 268.2 219.9 C 265.2 222.9 263.9 223.4 259.7 223.4 C 255.4 223.4 254.2 222.9 251.2 219.9 C 248.2 216.9 247.7 215.7 247.7 211.4 C 247.7 207.2 248.2 206.0 251.2 203.0 C 254.2 200.0 256.1 178.7 259.7 199.4 C 263.3 220.2 264.1 264.4 265.6 286.0 C 267.1 307.6 264.2 289.1 265.6 286.0 C 267.0 282.9 267.2 279.3 271.1 273.5 C 275.1 267.7 275.0 267.5 281.4 262.7 C 287.7 258.0 287.8 257.4 296.4 254.6 C 305.1 251.8 306.2 251.4 316.0 251.4 C 325.8 251.4 326.9 251.8 335.6 254.6 C 344.2 257.4 344.3 258.0 350.6 262.7 C 357.0 267.5 356.9 267.7 360.9 273.5 C 364.8 279.3 365.5 279.6 366.4 286.0 C 367.3 292.4 367.7 293.1 364.3 299.2 C 360.8 305.3 360.0 305.9 352.6 310.3 C 345.3 314.6 344.2 314.6 335.0 316.7 C 325.8 318.8 325.5 318.6 316.0 318.6 C 306.5 318.6 306.2 318.8 297.0 316.7 C 287.8 314.6 286.7 314.6 279.4 310.3 C 272.0 305.9 271.2 305.3 267.7 299.2 C 264.3 293.1 261.1 293.5 265.6 286.0 C 270.1 278.5 265.6 275.1 285.8 269.2 C 305.9 263.3 332.4 258.3 346.2 262.5 C 360.1 266.7 356.3 278.4 341.2 286.0 C 326.1 293.6 284.5 292.7 285.8 292.7 C 287.0 292.7 333.6 283.5 346.2 286.0 C 358.8 288.5 350.0 296.9 336.2 302.8 C 322.3 308.7 289.5 309.5 290.8 309.5 C 292.1 309.5 334.9 300.3 341.2 302.8 C 347.5 305.3 344.8 317.6 316.0 319.6 C 287.2 321.7 248.5 314.6 226.0 311.0 C 203.5 307.4 231.2 314.8 226.0 305.0 C 220.8 295.2 215.5 281.8 205.0 272.0 C 194.5 262.2 194.5 266.0 184.0 266.0 C 173.5 266.0 173.5 262.2 163.0 272.0 C 152.5 281.8 143.1 300.5 142.0 305.0 C 140.9 309.5 151.5 296.0 158.8 290.0 C 166.2 284.0 165.1 281.8 171.4 281.0 C 177.7 280.2 177.7 287.8 184.0 287.0 C 190.3 286.2 191.3 277.2 196.6 278.0 C 201.8 278.8 206.1 285.5 205.0 290.0 C 203.9 294.5 199.8 295.2 192.4 296.0 C 185.1 296.8 177.7 290.8 175.6 293.0 C 173.5 295.2 145.5 296.1 184.0 305.0 C 222.5 313.9 279.0 328.2 329.5 328.5 C 380.0 328.8 364.1 304.1 386.0 306.0 C 407.9 307.9 409.2 322.5 417.0 336.0 C 424.8 349.5 417.0 361.5 417.0 360.0 C 417.0 358.5 417.0 372.5 417.0 330.0 C 417.0 287.5 417.0 232.5 417.0 190.0 C 417.0 147.5 419.0 166.2 417.0 160.0 C 415.0 153.8 411.5 155.0 409.0 165.0 C 406.5 175.0 407.0 160.0 407.0 200.0 C 407.0 240.0 406.5 292.5 409.0 325.0 C 411.5 357.5 415.0 366.2 417.0 330.0 C 419.0 293.8 416.2 225.0 417.0 180.0 C 417.8 135.0 425.5 157.5 420.0 150.0 C 414.5 142.5 400.0 162.5 395.0 150.0 C 390.0 137.5 398.8 113.8 400.0 100.0 C 401.2 86.2 390.0 96.2 400.0 95.0 C 410.0 93.8 430.0 93.8 440.0 95.0 C 450.0 96.2 438.8 86.2 440.0 100.0 C 441.2 113.8 448.1 136.2 445.0 150.0 C 441.9 163.8 435.6 153.8 427.5 155.0 C 419.4 156.2 420.6 156.2 412.5 155.0 C 404.4 153.8 396.9 158.8 395.0 150.0 C 393.1 141.2 395.0 127.5 405.0 120.0 C 415.0 112.5 426.2 117.5 435.0 120.0 C 443.8 122.5 438.8 127.5 440.0 130.0"
        fill="none"
        stroke="#2B2B2B"
        stroke-width="2.5"
        stroke-linecap="round"
        stroke-linejoin="round"/>
</svg>